# xmcd
#
# Track frame offsets: 
#        150
#        22331
#        37585
#        56755
#        68292
#        86488
#        103309
#        116483
#        137469
#        161021
#        181583
#
# Disc length: 2455 seconds
#
# Revision: 0
# Processed by: cddbd v1.5.2PL0 Copyright (c) Steve Scherf et al.
# Submitted via: ExactAudioCopy v1.0b3
#
DISCID=8409950b
DTITLE=Buddy Guy - Rhythm and Blues [CD1]
DYEAR=2013
DGENRE=Blues
TTITLE0=Best In Town
TTITLE1=Justifyin'
TTITLE2=I Go By Feel
TTITLE3=Messin' With The Kid
TTITLE4=What's Up With That Woman
TTITLE5=One Day Away
TTITLE6=Well I Done Got Over It
TTITLE7=What You Gonna Do About Me
TTITLE8=The Devil's Daughter
TTITLE9=Whiskey Ghost
TTITLE10=Rhythm Inner Groove
EXTD=
EXTT0=
EXTT1=
EXTT2=
EXTT3=
EXTT4=
EXTT5=
EXTT6=
EXTT7=
EXTT8=
EXTT9=
EXTT10=
PLAYORDER=
